<svg xmlns="http://www.w3.org/2000/svg" width="696" height="42" viewBox="0 0 116 7" shape-rendering="crispEdges"><rect x="0" y="3" width="1" height="1" fill="#00894a"/><rect x="1" y="0" width="1" height="1" fill="#00894a"/><rect x="1" y="3" width="1" height="1" fill="#00894a"/><rect x="1" y="6" width="1" height="1" fill="#00894a"/><rect x="2" y="1" width="1" height="1" fill="#5aba1c"/><rect x="2" y="3" width="1" height="1" fill="#00894a"/><rect x="2" y="5" width="1" height="1" fill="#5aba1c"/><rect x="3" y="2" width="1" height="1" fill="#00894a"/><rect x="3" y="4" width="1" height="1" fill="#00894a"/><rect x="4" y="0" width="1" height="1" fill="#00894a"/><rect x="4" y="3" width="1" height="1" fill="#00894a"/><rect x="4" y="6" width="1" height="1" fill="#00894a"/><rect x="5" y="1" width="1" height="1" fill="#5aba1c"/><rect x="5" y="3" width="1" height="1" fill="#00894a"/><rect x="5" y="5" width="1" height="1" fill="#5aba1c"/><rect x="6" y="2" width="1" height="1" fill="#00894a"/><rect x="6" y="4" width="1" height="1" fill="#00894a"/><rect x="7" y="0" width="1" height="1" fill="#00894a"/><rect x="7" y="3" width="1" height="1" fill="#00894a"/><rect x="7" y="6" width="1" height="1" fill="#00894a"/><rect x="8" y="1" width="1" height="1" fill="#5aba1c"/><rect x="8" y="3" width="1" height="1" fill="#00894a"/><rect x="8" y="5" width="1" height="1" fill="#5aba1c"/><rect x="9" y="2" width="1" height="1" fill="#00894a"/><rect x="9" y="4" width="1" height="1" fill="#00894a"/><rect x="10" y="3" width="1" height="1" fill="#00894a"/><rect x="11" y="3" width="1" height="1" fill="#00894a"/><rect x="12" y="0" width="1" height="1" fill="#00894a"/><rect x="12" y="3" width="1" height="1" fill="#00894a"/><rect x="12" y="6" width="1" height="1" fill="#00894a"/><rect x="13" y="1" width="1" height="1" fill="#5aba1c"/><rect x="13" y="3" width="1" height="1" fill="#00894a"/><rect x="13" y="5" width="1" height="1" fill="#5aba1c"/><rect x="14" y="2" width="1" height="1" fill="#00894a"/><rect x="14" y="4" width="1" height="1" fill="#00894a"/><rect x="15" y="0" width="1" height="1" fill="#00894a"/><rect x="15" y="3" width="1" height="1" fill="#00894a"/><rect x="15" y="6" width="1" height="1" fill="#00894a"/><rect x="16" y="1" width="1" height="1" fill="#5aba1c"/><rect x="16" y="3" width="1" height="1" fill="#00894a"/><rect x="16" y="5" width="1" height="1" fill="#5aba1c"/><rect x="17" y="2" width="1" height="1" fill="#00894a"/><rect x="17" y="4" width="1" height="1" fill="#00894a"/><rect x="18" y="0" width="1" height="1" fill="#00894a"/><rect x="18" y="3" width="1" height="1" fill="#00894a"/><rect x="18" y="6" width="1" height="1" fill="#00894a"/><rect x="19" y="1" width="1" height="1" fill="#5aba1c"/><rect x="19" y="3" width="1" height="1" fill="#00894a"/><rect x="19" y="5" width="1" height="1" fill="#5aba1c"/><rect x="20" y="2" width="1" height="1" fill="#00894a"/><rect x="20" y="4" width="1" height="1" fill="#00894a"/><rect x="21" y="3" width="1" height="1" fill="#00894a"/><rect x="22" y="3" width="1" height="1" fill="#00894a"/><rect x="23" y="0" width="1" height="1" fill="#00894a"/><rect x="23" y="3" width="1" height="1" fill="#00894a"/><rect x="23" y="6" width="1" height="1" fill="#00894a"/><rect x="24" y="1" width="1" height="1" fill="#5aba1c"/><rect x="24" y="3" width="1" height="1" fill="#00894a"/><rect x="24" y="5" width="1" height="1" fill="#5aba1c"/><rect x="25" y="2" width="1" height="1" fill="#00894a"/><rect x="25" y="4" width="1" height="1" fill="#00894a"/><rect x="26" y="0" width="1" height="1" fill="#00894a"/><rect x="26" y="3" width="1" height="1" fill="#00894a"/><rect x="26" y="6" width="1" height="1" fill="#00894a"/><rect x="27" y="1" width="1" height="1" fill="#5aba1c"/><rect x="27" y="3" width="1" height="1" fill="#00894a"/><rect x="27" y="5" width="1" height="1" fill="#5aba1c"/><rect x="28" y="2" width="1" height="1" fill="#00894a"/><rect x="28" y="4" width="1" height="1" fill="#00894a"/><rect x="29" y="0" width="1" height="1" fill="#00894a"/><rect x="29" y="3" width="1" height="1" fill="#00894a"/><rect x="29" y="6" width="1" height="1" fill="#00894a"/><rect x="30" y="1" width="1" height="1" fill="#5aba1c"/><rect x="30" y="3" width="1" height="1" fill="#00894a"/><rect x="30" y="5" width="1" height="1" fill="#5aba1c"/><rect x="31" y="2" width="1" height="1" fill="#00894a"/><rect x="31" y="4" width="1" height="1" fill="#00894a"/><rect x="32" y="3" width="1" height="1" fill="#00894a"/><rect x="33" y="3" width="1" height="1" fill="#00894a"/><rect x="34" y="0" width="1" height="1" fill="#00894a"/><rect x="34" y="3" width="1" height="1" fill="#00894a"/><rect x="34" y="6" width="1" height="1" fill="#00894a"/><rect x="35" y="1" width="1" height="1" fill="#5aba1c"/><rect x="35" y="3" width="1" height="1" fill="#00894a"/><rect x="35" y="5" width="1" height="1" fill="#5aba1c"/><rect x="36" y="2" width="1" height="1" fill="#00894a"/><rect x="36" y="4" width="1" height="1" fill="#00894a"/><rect x="37" y="0" width="1" height="1" fill="#00894a"/><rect x="37" y="3" width="1" height="1" fill="#00894a"/><rect x="37" y="6" width="1" height="1" fill="#00894a"/><rect x="38" y="1" width="1" height="1" fill="#5aba1c"/><rect x="38" y="3" width="1" height="1" fill="#00894a"/><rect x="38" y="5" width="1" height="1" fill="#5aba1c"/><rect x="39" y="2" width="1" height="1" fill="#00894a"/><rect x="39" y="4" width="1" height="1" fill="#00894a"/><rect x="40" y="0" width="1" height="1" fill="#00894a"/><rect x="40" y="3" width="1" height="1" fill="#00894a"/><rect x="40" y="6" width="1" height="1" fill="#00894a"/><rect x="41" y="1" width="1" height="1" fill="#5aba1c"/><rect x="41" y="3" width="1" height="1" fill="#00894a"/><rect x="41" y="5" width="1" height="1" fill="#5aba1c"/><rect x="42" y="2" width="1" height="1" fill="#00894a"/><rect x="42" y="4" width="1" height="1" fill="#00894a"/><rect x="43" y="3" width="1" height="1" fill="#00894a"/><rect x="44" y="3" width="1" height="1" fill="#00894a"/><rect x="45" y="0" width="1" height="1" fill="#00894a"/><rect x="45" y="3" width="1" height="1" fill="#00894a"/><rect x="45" y="6" width="1" height="1" fill="#00894a"/><rect x="46" y="1" width="1" height="1" fill="#5aba1c"/><rect x="46" y="3" width="1" height="1" fill="#00894a"/><rect x="46" y="5" width="1" height="1" fill="#5aba1c"/><rect x="47" y="2" width="1" height="1" fill="#00894a"/><rect x="47" y="4" width="1" height="1" fill="#00894a"/><rect x="48" y="0" width="1" height="1" fill="#00894a"/><rect x="48" y="3" width="1" height="1" fill="#00894a"/><rect x="48" y="6" width="1" height="1" fill="#00894a"/><rect x="49" y="1" width="1" height="1" fill="#5aba1c"/><rect x="49" y="3" width="1" height="1" fill="#00894a"/><rect x="49" y="5" width="1" height="1" fill="#5aba1c"/><rect x="50" y="2" width="1" height="1" fill="#00894a"/><rect x="50" y="4" width="1" height="1" fill="#00894a"/><rect x="51" y="0" width="1" height="1" fill="#00894a"/><rect x="51" y="3" width="1" height="1" fill="#00894a"/><rect x="51" y="6" width="1" height="1" fill="#00894a"/><rect x="52" y="1" width="1" height="1" fill="#5aba1c"/><rect x="52" y="3" width="1" height="1" fill="#00894a"/><rect x="52" y="5" width="1" height="1" fill="#5aba1c"/><rect x="53" y="2" width="1" height="1" fill="#00894a"/><rect x="53" y="4" width="1" height="1" fill="#00894a"/><rect x="54" y="3" width="1" height="1" fill="#00894a"/><rect x="55" y="3" width="1" height="1" fill="#00894a"/><rect x="57" y="2" width="1" height="1" fill="#00894a"/><rect x="57" y="3" width="1" height="1" fill="#00894a"/><rect x="57" y="4" width="1" height="1" fill="#00894a"/><rect x="58" y="2" width="1" height="1" fill="#00894a"/><rect x="58" y="3" width="1" height="1" fill="#00894a"/><rect x="58" y="4" width="1" height="1" fill="#00894a"/><rect x="59" y="2" width="1" height="1" fill="#00894a"/><rect x="59" y="3" width="1" height="1" fill="#00894a"/><rect x="59" y="4" width="1" height="1" fill="#00894a"/><rect x="60" y="3" width="1" height="1" fill="#00894a"/><rect x="61" y="3" width="1" height="1" fill="#00894a"/><rect x="62" y="2" width="1" height="1" fill="#00894a"/><rect x="62" y="4" width="1" height="1" fill="#00894a"/><rect x="63" y="1" width="1" height="1" fill="#5aba1c"/><rect x="63" y="3" width="1" height="1" fill="#00894a"/><rect x="63" y="5" width="1" height="1" fill="#5aba1c"/><rect x="64" y="0" width="1" height="1" fill="#00894a"/><rect x="64" y="3" width="1" height="1" fill="#00894a"/><rect x="64" y="6" width="1" height="1" fill="#00894a"/><rect x="65" y="2" width="1" height="1" fill="#00894a"/><rect x="65" y="4" width="1" height="1" fill="#00894a"/><rect x="66" y="1" width="1" height="1" fill="#5aba1c"/><rect x="66" y="3" width="1" height="1" fill="#00894a"/><rect x="66" y="5" width="1" height="1" fill="#5aba1c"/><rect x="67" y="0" width="1" height="1" fill="#00894a"/><rect x="67" y="3" width="1" height="1" fill="#00894a"/><rect x="67" y="6" width="1" height="1" fill="#00894a"/><rect x="68" y="2" width="1" height="1" fill="#00894a"/><rect x="68" y="4" width="1" height="1" fill="#00894a"/><rect x="69" y="1" width="1" height="1" fill="#5aba1c"/><rect x="69" y="3" width="1" height="1" fill="#00894a"/><rect x="69" y="5" width="1" height="1" fill="#5aba1c"/><rect x="70" y="0" width="1" height="1" fill="#00894a"/><rect x="70" y="3" width="1" height="1" fill="#00894a"/><rect x="70" y="6" width="1" height="1" fill="#00894a"/><rect x="71" y="3" width="1" height="1" fill="#00894a"/><rect x="72" y="3" width="1" height="1" fill="#00894a"/><rect x="73" y="2" width="1" height="1" fill="#00894a"/><rect x="73" y="4" width="1" height="1" fill="#00894a"/><rect x="74" y="1" width="1" height="1" fill="#5aba1c"/><rect x="74" y="3" width="1" height="1" fill="#00894a"/><rect x="74" y="5" width="1" height="1" fill="#5aba1c"/><rect x="75" y="0" width="1" height="1" fill="#00894a"/><rect x="75" y="3" width="1" height="1" fill="#00894a"/><rect x="75" y="6" width="1" height="1" fill="#00894a"/><rect x="76" y="2" width="1" height="1" fill="#00894a"/><rect x="76" y="4" width="1" height="1" fill="#00894a"/><rect x="77" y="1" width="1" height="1" fill="#5aba1c"/><rect x="77" y="3" width="1" height="1" fill="#00894a"/><rect x="77" y="5" width="1" height="1" fill="#5aba1c"/><rect x="78" y="0" width="1" height="1" fill="#00894a"/><rect x="78" y="3" width="1" height="1" fill="#00894a"/><rect x="78" y="6" width="1" height="1" fill="#00894a"/><rect x="79" y="2" width="1" height="1" fill="#00894a"/><rect x="79" y="4" width="1" height="1" fill="#00894a"/><rect x="80" y="1" width="1" height="1" fill="#5aba1c"/><rect x="80" y="3" width="1" height="1" fill="#00894a"/><rect x="80" y="5" width="1" height="1" fill="#5aba1c"/><rect x="81" y="0" width="1" height="1" fill="#00894a"/><rect x="81" y="3" width="1" height="1" fill="#00894a"/><rect x="81" y="6" width="1" height="1" fill="#00894a"/><rect x="82" y="3" width="1" height="1" fill="#00894a"/><rect x="83" y="3" width="1" height="1" fill="#00894a"/><rect x="84" y="2" width="1" height="1" fill="#00894a"/><rect x="84" y="4" width="1" height="1" fill="#00894a"/><rect x="85" y="1" width="1" height="1" fill="#5aba1c"/><rect x="85" y="3" width="1" height="1" fill="#00894a"/><rect x="85" y="5" width="1" height="1" fill="#5aba1c"/><rect x="86" y="0" width="1" height="1" fill="#00894a"/><rect x="86" y="3" width="1" height="1" fill="#00894a"/><rect x="86" y="6" width="1" height="1" fill="#00894a"/><rect x="87" y="2" width="1" height="1" fill="#00894a"/><rect x="87" y="4" width="1" height="1" fill="#00894a"/><rect x="88" y="1" width="1" height="1" fill="#5aba1c"/><rect x="88" y="3" width="1" height="1" fill="#00894a"/><rect x="88" y="5" width="1" height="1" fill="#5aba1c"/><rect x="89" y="0" width="1" height="1" fill="#00894a"/><rect x="89" y="3" width="1" height="1" fill="#00894a"/><rect x="89" y="6" width="1" height="1" fill="#00894a"/><rect x="90" y="2" width="1" height="1" fill="#00894a"/><rect x="90" y="4" width="1" height="1" fill="#00894a"/><rect x="91" y="1" width="1" height="1" fill="#5aba1c"/><rect x="91" y="3" width="1" height="1" fill="#00894a"/><rect x="91" y="5" width="1" height="1" fill="#5aba1c"/><rect x="92" y="0" width="1" height="1" fill="#00894a"/><rect x="92" y="3" width="1" height="1" fill="#00894a"/><rect x="92" y="6" width="1" height="1" fill="#00894a"/><rect x="93" y="3" width="1" height="1" fill="#00894a"/><rect x="94" y="3" width="1" height="1" fill="#00894a"/><rect x="95" y="2" width="1" height="1" fill="#00894a"/><rect x="95" y="4" width="1" height="1" fill="#00894a"/><rect x="96" y="1" width="1" height="1" fill="#5aba1c"/><rect x="96" y="3" width="1" height="1" fill="#00894a"/><rect x="96" y="5" width="1" height="1" fill="#5aba1c"/><rect x="97" y="0" width="1" height="1" fill="#00894a"/><rect x="97" y="3" width="1" height="1" fill="#00894a"/><rect x="97" y="6" width="1" height="1" fill="#00894a"/><rect x="98" y="2" width="1" height="1" fill="#00894a"/><rect x="98" y="4" width="1" height="1" fill="#00894a"/><rect x="99" y="1" width="1" height="1" fill="#5aba1c"/><rect x="99" y="3" width="1" height="1" fill="#00894a"/><rect x="99" y="5" width="1" height="1" fill="#5aba1c"/><rect x="100" y="0" width="1" height="1" fill="#00894a"/><rect x="100" y="3" width="1" height="1" fill="#00894a"/><rect x="100" y="6" width="1" height="1" fill="#00894a"/><rect x="101" y="2" width="1" height="1" fill="#00894a"/><rect x="101" y="4" width="1" height="1" fill="#00894a"/><rect x="102" y="1" width="1" height="1" fill="#5aba1c"/><rect x="102" y="3" width="1" height="1" fill="#00894a"/><rect x="102" y="5" width="1" height="1" fill="#5aba1c"/><rect x="103" y="0" width="1" height="1" fill="#00894a"/><rect x="103" y="3" width="1" height="1" fill="#00894a"/><rect x="103" y="6" width="1" height="1" fill="#00894a"/><rect x="104" y="3" width="1" height="1" fill="#00894a"/><rect x="105" y="3" width="1" height="1" fill="#00894a"/><rect x="106" y="2" width="1" height="1" fill="#00894a"/><rect x="106" y="4" width="1" height="1" fill="#00894a"/><rect x="107" y="1" width="1" height="1" fill="#5aba1c"/><rect x="107" y="3" width="1" height="1" fill="#00894a"/><rect x="107" y="5" width="1" height="1" fill="#5aba1c"/><rect x="108" y="0" width="1" height="1" fill="#00894a"/><rect x="108" y="3" width="1" height="1" fill="#00894a"/><rect x="108" y="6" width="1" height="1" fill="#00894a"/><rect x="109" y="2" width="1" height="1" fill="#00894a"/><rect x="109" y="4" width="1" height="1" fill="#00894a"/><rect x="110" y="1" width="1" height="1" fill="#5aba1c"/><rect x="110" y="3" width="1" height="1" fill="#00894a"/><rect x="110" y="5" width="1" height="1" fill="#5aba1c"/><rect x="111" y="0" width="1" height="1" fill="#00894a"/><rect x="111" y="3" width="1" height="1" fill="#00894a"/><rect x="111" y="6" width="1" height="1" fill="#00894a"/><rect x="112" y="2" width="1" height="1" fill="#00894a"/><rect x="112" y="4" width="1" height="1" fill="#00894a"/><rect x="113" y="1" width="1" height="1" fill="#5aba1c"/><rect x="113" y="3" width="1" height="1" fill="#00894a"/><rect x="113" y="5" width="1" height="1" fill="#5aba1c"/><rect x="114" y="0" width="1" height="1" fill="#00894a"/><rect x="114" y="3" width="1" height="1" fill="#00894a"/><rect x="114" y="6" width="1" height="1" fill="#00894a"/><rect x="115" y="3" width="1" height="1" fill="#00894a"/></svg>